<?xml version="1.0" encoding="utf-8"?>
<!-- Generator: Adobe Illustrator 24.1.0, SVG Export Plug-In . SVG Version: 6.00 Build 0)  -->
<svg version="1.1" id="Layer_1" xmlns="http://www.w3.org/2000/svg" xmlns:xlink="http://www.w3.org/1999/xlink" x="0px" y="0px"
	 viewBox="0 0 193 130.4" style="enable-background:new 0 0 193 130.4;" xml:space="preserve">
<style type="text/css">
	.st0{fill:#010101;}
	.st1{font-family:'Helvetica-BoldOblique';}
	.st2{font-size:19.1211px;}
	.st3{fill:url(#SVGID_1_);}
	.st4{fill:url(#SVGID_2_);}
	.st5{fill:url(#SVGID_3_);}
	.st6{fill:url(#SVGID_4_);}
	.st7{fill:url(#SVGID_5_);}
	.st8{fill:url(#SVGID_6_);}
	.st9{fill:url(#SVGID_7_);}
	.st10{fill:url(#SVGID_8_);}
	.st11{fill:url(#SVGID_9_);}
	.st12{fill:url(#SVGID_10_);}
	.st13{fill:url(#SVGID_11_);}
	.st14{fill:url(#SVGID_12_);}
	.st15{fill:url(#SVGID_13_);}
	.st16{fill:url(#SVGID_14_);}
	.st17{fill:url(#SVGID_15_);}
	.st18{fill:url(#SVGID_16_);}
	.st19{opacity:0.81;}
	.st20{fill:#159EA3;}
</style>
<g>
	<text transform="matrix(0.93 4.650000e-05 -5.000000e-05 1 0.7313 115.8779)" class="st0 st1 st2">ASEAN NEWS REACH</text>
	<g>
		<g>
			
				<linearGradient id="SVGID_1_" gradientUnits="userSpaceOnUse" x1="86.1876" y1="107.7391" x2="86.1876" y2="46.9817" gradientTransform="matrix(1 0 0 -1 0 132)">
				<stop  offset="0" style="stop-color:#FFFFFF"/>
				<stop  offset="1" style="stop-color:#B3B3B3"/>
			</linearGradient>
			<polygon class="st3" points="86.2,45.6 79.1,38.4 86.2,31.3 93.3,38.4 			"/>
			
				<linearGradient id="SVGID_2_" gradientUnits="userSpaceOnUse" x1="76.784" y1="107.7391" x2="76.784" y2="46.9817" gradientTransform="matrix(1 0 0 -1 0 132)">
				<stop  offset="0" style="stop-color:#FFFFFF"/>
				<stop  offset="1" style="stop-color:#B3B3B3"/>
			</linearGradient>
			<polygon class="st4" points="76.8,54.7 69.7,47.6 76.8,40.5 83.9,47.6 			"/>
			
				<linearGradient id="SVGID_3_" gradientUnits="userSpaceOnUse" x1="67.3804" y1="107.7391" x2="67.3804" y2="46.9817" gradientTransform="matrix(1 0 0 -1 0 132)">
				<stop  offset="0" style="stop-color:#FFFFFF"/>
				<stop  offset="1" style="stop-color:#B3B3B3"/>
			</linearGradient>
			<polygon class="st5" points="67.4,63.8 60.3,56.7 67.4,49.6 74.5,56.7 			"/>
			
				<linearGradient id="SVGID_4_" gradientUnits="userSpaceOnUse" x1="95.8797" y1="107.7391" x2="95.8797" y2="46.9817" gradientTransform="matrix(1 0 0 -1 0 132)">
				<stop  offset="0" style="stop-color:#FFFFFF"/>
				<stop  offset="1" style="stop-color:#B3B3B3"/>
			</linearGradient>
			<polygon class="st6" points="95.9,35.9 88.8,28.8 95.9,21.7 103,28.8 			"/>
			
				<linearGradient id="SVGID_5_" gradientUnits="userSpaceOnUse" x1="95.5912" y1="107.7391" x2="95.5912" y2="46.9817" gradientTransform="matrix(1 0 0 -1 0 132)">
				<stop  offset="0" style="stop-color:#FFFFFF"/>
				<stop  offset="1" style="stop-color:#B3B3B3"/>
			</linearGradient>
			<polygon class="st7" points="95.6,54.7 88.5,47.6 95.6,40.5 102.7,47.6 			"/>
			
				<linearGradient id="SVGID_6_" gradientUnits="userSpaceOnUse" x1="85.6203" y1="107.7391" x2="85.6203" y2="46.9817" gradientTransform="matrix(1 0 0 -1 0 132)">
				<stop  offset="0" style="stop-color:#FFFFFF"/>
				<stop  offset="1" style="stop-color:#B3B3B3"/>
			</linearGradient>
			<polygon class="st8" points="85.6,64.4 78.5,57.3 85.6,50.2 92.7,57.3 			"/>
			
				<linearGradient id="SVGID_7_" gradientUnits="userSpaceOnUse" x1="77.0676" y1="107.7391" x2="77.0676" y2="46.9817" gradientTransform="matrix(1 0 0 -1 0 132)">
				<stop  offset="0" style="stop-color:#FFFFFF"/>
				<stop  offset="1" style="stop-color:#B3B3B3"/>
			</linearGradient>
			<polygon class="st9" points="77.1,74 70,66.9 77.1,59.8 84.2,66.9 			"/>
			
				<linearGradient id="SVGID_8_" gradientUnits="userSpaceOnUse" x1="86.1876" y1="107.7391" x2="86.1876" y2="46.9817" gradientTransform="matrix(1 0 0 -1 0 132)">
				<stop  offset="0" style="stop-color:#FFFFFF"/>
				<stop  offset="1" style="stop-color:#B3B3B3"/>
			</linearGradient>
			<polygon class="st10" points="86.2,83.2 79.1,76.1 86.2,69 93.3,76.1 			"/>
			
				<linearGradient id="SVGID_9_" gradientUnits="userSpaceOnUse" x1="104.9949" y1="107.7391" x2="104.9949" y2="46.9817" gradientTransform="matrix(1 0 0 -1 0 132)">
				<stop  offset="0" style="stop-color:#FFFFFF"/>
				<stop  offset="1" style="stop-color:#B3B3B3"/>
			</linearGradient>
			<polygon class="st11" points="105,83.4 97.9,76.3 105,69.3 112.1,76.3 			"/>
			
				<linearGradient id="SVGID_10_" gradientUnits="userSpaceOnUse" x1="104.9949" y1="107.7391" x2="104.9949" y2="46.9817" gradientTransform="matrix(1 0 0 -1 0 132)">
				<stop  offset="0" style="stop-color:#FFFFFF"/>
				<stop  offset="1" style="stop-color:#B3B3B3"/>
			</linearGradient>
			<polygon class="st12" points="105,63.8 97.9,56.7 105,49.6 112.1,56.7 			"/>
			
				<linearGradient id="SVGID_11_" gradientUnits="userSpaceOnUse" x1="114.3985" y1="107.7391" x2="114.3985" y2="46.9817" gradientTransform="matrix(1 0 0 -1 0 132)">
				<stop  offset="0" style="stop-color:#FFFFFF"/>
				<stop  offset="1" style="stop-color:#B3B3B3"/>
			</linearGradient>
			<polygon class="st13" points="114.4,73.8 107.3,66.7 114.4,59.6 121.5,66.7 			"/>
			
				<linearGradient id="SVGID_12_" gradientUnits="userSpaceOnUse" x1="95.5912" y1="107.7391" x2="95.5912" y2="46.9817" gradientTransform="matrix(1 0 0 -1 0 132)">
				<stop  offset="0" style="stop-color:#FFFFFF"/>
				<stop  offset="1" style="stop-color:#B3B3B3"/>
			</linearGradient>
			<polygon class="st14" points="95.6,73.8 88.5,66.7 95.6,59.6 102.7,66.7 			"/>
			
				<linearGradient id="SVGID_13_" gradientUnits="userSpaceOnUse" x1="95.5912" y1="107.7391" x2="95.5912" y2="46.9817" gradientTransform="matrix(1 0 0 -1 0 132)">
				<stop  offset="0" style="stop-color:#FFFFFF"/>
				<stop  offset="1" style="stop-color:#B3B3B3"/>
			</linearGradient>
			<polygon class="st15" points="95.6,92 88.5,84.9 95.6,77.8 102.7,84.9 			"/>
			
				<linearGradient id="SVGID_14_" gradientUnits="userSpaceOnUse" x1="105.2833" y1="107.7391" x2="105.2833" y2="46.9817" gradientTransform="matrix(1 0 0 -1 0 132)">
				<stop  offset="0" style="stop-color:#FFFFFF"/>
				<stop  offset="1" style="stop-color:#B3B3B3"/>
			</linearGradient>
			<polygon class="st16" points="105.3,45.3 98.2,38.2 105.3,31.1 112.4,38.2 			"/>
			
				<linearGradient id="SVGID_15_" gradientUnits="userSpaceOnUse" x1="114.3985" y1="107.7391" x2="114.3985" y2="46.9817" gradientTransform="matrix(1 0 0 -1 0 132)">
				<stop  offset="0" style="stop-color:#FFFFFF"/>
				<stop  offset="1" style="stop-color:#B3B3B3"/>
			</linearGradient>
			<polygon class="st17" points="114.4,54.4 107.3,47.3 114.4,40.2 121.5,47.3 			"/>
			
				<linearGradient id="SVGID_16_" gradientUnits="userSpaceOnUse" x1="124.0905" y1="107.7391" x2="124.0905" y2="46.9817" gradientTransform="matrix(1 0 0 -1 0 132)">
				<stop  offset="0" style="stop-color:#FFFFFF"/>
				<stop  offset="1" style="stop-color:#B3B3B3"/>
			</linearGradient>
			<polygon class="st18" points="124.1,63.8 117,56.7 124.1,49.6 131.2,56.7 			"/>
		</g>
		<g class="st19">
			<rect x="81.2" y="24.3" transform="matrix(0.7071 -0.7071 0.7071 0.7071 4.5041 69.537)" class="st20" width="10" height="10"/>
			
				<rect x="71.8" y="33.4" transform="matrix(0.7071 -0.7071 0.7071 0.7071 -4.6957 65.5597)" class="st20" width="10" height="10"/>
			
				<rect x="62.4" y="42.6" transform="matrix(0.7071 -0.7071 0.7071 0.7071 -13.9022 61.5795)" class="st20" width="10" height="10"/>
			
				<rect x="90.9" y="14.6" transform="matrix(0.7071 -0.7071 0.7071 0.7071 14.1971 73.5465)" class="st20" width="10" height="10"/>
			<rect x="90.6" y="33.4" transform="matrix(0.7071 -0.7071 0.7071 0.7071 0.8132 78.8583)" class="st20" width="10" height="10"/>
			
				<rect x="80.6" y="43.1" transform="matrix(0.7071 -0.7071 0.7071 0.7071 -8.9594 74.6379)" class="st20" width="10" height="10"/>
			<rect x="72" y="52.8" transform="matrix(0.7071 -0.7071 0.7071 0.7071 -18.3169 71.4306)" class="st20" width="10" height="10"/>
			
				<rect x="81.2" y="61.9" transform="matrix(0.7071 -0.7071 0.7071 0.7071 -22.0931 80.5547)" class="st20" width="10" height="10"/>
			
				<rect x="100" y="62.2" transform="matrix(0.7071 -0.7071 0.7071 0.7071 -16.7882 93.9357)" class="st20" width="10" height="10"/>
			<rect x="100" y="42.6" transform="matrix(0.7071 -0.7071 0.7071 0.7071 -2.8845 88.1767)" class="st20" width="10" height="10"/>
			
				<rect x="109.4" y="52.5" transform="matrix(0.7071 -0.7071 0.7071 0.7071 -7.1804 97.7481)" class="st20" width="10" height="10"/>
			
				<rect x="90.6" y="52.5" transform="matrix(0.7071 -0.7071 0.7071 0.7071 -12.6893 84.4496)" class="st20" width="10" height="10"/>
			
				<rect x="90.6" y="70.8" transform="matrix(0.7071 -0.7071 0.7071 0.7071 -25.5868 89.7907)" class="st20" width="10" height="10"/>
			<rect x="100.3" y="24" transform="matrix(0.7071 -0.7071 0.7071 0.7071 10.3023 82.9503)" class="st20" width="10" height="10"/>
			
				<rect x="109.4" y="33.1" transform="matrix(0.7071 -0.7071 0.7071 0.7071 6.5193 92.0716)" class="st20" width="10" height="10"/>
			
				<rect x="119.1" y="42.5" transform="matrix(0.7071 -0.7071 0.7071 0.7071 2.7097 101.6725)" class="st20" width="10" height="10"/>
		</g>
	</g>
</g>
</svg>
